<svg viewBox="0 0 12 12" version="1.1" xmlns="http://www.w3.org/2000/svg" xmlns:xlink="http://www.w3.org/1999/xlink">
		<g id="Symbols" stroke="none" stroke-width="1" fill="none" fill-rule="evenodd">
				<g id="star-icon" transform="translate(-1.000000, -1.000000)" fill-rule="nonzero" fill="#FFD401">
						<path d="M13,5.65028355 C13,5.76118463 12.9375,5.88216761 12.8125,6.01323251 L10.1947115,8.6899811 L10.8149038,12.4706994 C10.8197115,12.5059861 10.8221154,12.5563957 10.8221154,12.6219282 C10.8221154,12.7277883 10.796875,12.8172653 10.7463942,12.8903592 C10.6959135,12.9634531 10.6225962,13 10.5264423,13 C10.4350962,13 10.3389423,12.9697543 10.2379808,12.9092628 L7,11.1247637 L3.76201923,12.9092628 C3.65625,12.9697543 3.56009615,13 3.47355769,13 C3.37259615,13 3.296875,12.9634531 3.24639423,12.8903592 C3.19591346,12.8172653 3.17067308,12.7277883 3.17067308,12.6219282 C3.17067308,12.5916824 3.17548077,12.5412728 3.18509615,12.4706994 L3.80528846,8.6899811 L1.18028846,6.01323251 C1.06009615,5.87712665 1,5.75614367 1,5.65028355 C1,5.46376812 1.13461538,5.34782609 1.40384615,5.30245747 L5.02403846,4.75047259 L6.64663462,1.3100189 C6.73798077,1.10333963 6.85576923,1 7,1 C7.14423077,1 7.26201923,1.10333963 7.35336538,1.3100189 L8.97596154,4.75047259 L12.5961538,5.30245747 C12.8653846,5.34782609 13,5.46376812 13,5.65028355 Z" id="Shape"></path>
				</g>
		</g>
</svg>
